<svg width="53" height="53" viewBox="0 0 53 53" fill="none" xmlns="http://www.w3.org/2000/svg">
<g clip-path="url(#clip0_1_1060)">
<rect x="0.703491" y="0.409431" width="52.476" height="52.476" rx="26.238" fill="#1E1E1E" fill-opacity="0.12"/>
<path fill-rule="evenodd" clip-rule="evenodd" d="M14.6162 15.7149H38.1768C38.7683 15.7149 39.2478 16.2044 39.2478 16.8082V22.2744C39.2478 22.8782 38.7683 23.3677 38.1768 23.3677H37.1059V22.2744C37.1059 21.6707 36.6264 21.1812 36.035 21.1812H37.1059V17.9014H15.6871V21.1812H16.7581C16.1666 21.1812 15.6871 21.6707 15.6871 22.2744V23.3677H14.6162C14.0247 23.3677 13.5452 22.8782 13.5452 22.2744V16.8082C13.5452 16.2044 14.0247 15.7149 14.6162 15.7149ZM17.829 23.3677H15.6871V36.4867C15.6871 37.0905 16.1666 37.5799 16.7581 37.5799H36.035C36.6264 37.5799 37.1059 37.0905 37.1059 36.4867V23.3677H34.964V22.2744C34.964 21.6707 35.4435 21.1812 36.035 21.1812H16.7581C17.3495 21.1812 17.829 21.6707 17.829 22.2744V23.3677ZM17.829 23.3677H34.964V35.3934H17.829V23.3677ZM23.1837 26.6474C23.1837 27.2512 23.6631 27.7407 24.2546 27.7407H28.5384C29.1298 27.7407 29.6093 27.2512 29.6093 26.6474C29.6093 26.0437 29.1298 25.5542 28.5384 25.5542H24.2546C23.6631 25.5542 23.1837 26.0437 23.1837 26.6474Z" fill="black"/>
<mask id="mask0_1_1060" style="mask-type:luminance" maskUnits="userSpaceOnUse" x="13" y="15" width="27" height="23">
<path fill-rule="evenodd" clip-rule="evenodd" d="M14.6162 15.7149H38.1768C38.7683 15.7149 39.2478 16.2044 39.2478 16.8082V22.2744C39.2478 22.8782 38.7683 23.3677 38.1768 23.3677H37.1059V22.2744C37.1059 21.6707 36.6264 21.1812 36.035 21.1812H37.1059V17.9014H15.6871V21.1812H16.7581C16.1666 21.1812 15.6871 21.6707 15.6871 22.2744V23.3677H14.6162C14.0247 23.3677 13.5452 22.8782 13.5452 22.2744V16.8082C13.5452 16.2044 14.0247 15.7149 14.6162 15.7149ZM17.829 23.3677H15.6871V36.4867C15.6871 37.0905 16.1666 37.5799 16.7581 37.5799H36.035C36.6264 37.5799 37.1059 37.0905 37.1059 36.4867V23.3677H34.964V22.2744C34.964 21.6707 35.4435 21.1812 36.035 21.1812H16.7581C17.3495 21.1812 17.829 21.6707 17.829 22.2744V23.3677ZM17.829 23.3677H34.964V35.3934H17.829V23.3677ZM23.1837 26.6474C23.1837 27.2512 23.6631 27.7407 24.2546 27.7407H28.5384C29.1298 27.7407 29.6093 27.2512 29.6093 26.6474C29.6093 26.0437 29.1298 25.5542 28.5384 25.5542H24.2546C23.6631 25.5542 23.1837 26.0437 23.1837 26.6474Z" fill="white"/>
</mask>
<g mask="url(#mask0_1_1060)">
<rect x="13.5452" y="13.5284" width="25.7025" height="26.238" fill="#5E5873"/>
</g>
</g>
<defs>
<clipPath id="clip0_1_1060">
<rect width="52.476" height="52.476" fill="white" transform="translate(0.237976 0.409424)"/>
</clipPath>
</defs>
</svg>
