<svg width="21" height="21" viewBox="0 0 21 21" fill="none" xmlns="http://www.w3.org/2000/svg">
<path fill-rule="evenodd" clip-rule="evenodd" d="M10.6989 1.37234C5.69731 1.37234 1.67961 5.39004 1.67961 10.3917C1.67961 15.3933 5.69731 19.411 10.6989 19.411C15.7005 19.411 19.7182 15.3933 19.7182 10.3917C19.7182 5.39004 15.7005 1.37234 10.6989 1.37234ZM10.6989 17.7711C6.59924 17.7711 3.31949 14.4913 3.31949 10.3917C3.31949 6.29196 6.59924 3.01221 10.6989 3.01221C14.7986 3.01221 18.0784 6.29196 18.0784 10.3917C18.0784 14.4913 14.7986 17.7711 10.6989 17.7711ZM14.7472 10.1714C14.7307 10.1316 14.7166 10.0976 14.7166 10.0637C14.7166 9.98168 14.6346 9.89969 14.5526 9.8177L11.2729 6.53794C10.9449 6.20997 10.4529 6.20997 10.125 6.53794C9.79699 6.86592 9.79699 7.35788 10.125 7.68586L12.0108 9.57171H7.41917C6.92721 9.57171 6.59924 9.89969 6.59924 10.3917C6.59924 10.8836 6.92721 11.2116 7.41917 11.2116H12.0108L10.125 13.0974C9.79699 13.4254 9.79699 13.9174 10.125 14.2454C10.289 14.4093 10.4529 14.4913 10.6989 14.4913C10.9449 14.4913 11.1089 14.4093 11.2729 14.2454L14.5526 10.9656C14.6346 10.8836 14.7166 10.8016 14.7166 10.7196C14.7986 10.6376 14.7986 10.4736 14.7986 10.3917C14.7986 10.2956 14.7705 10.2277 14.7472 10.1714Z" fill="black"/>
<mask id="mask0_1_888" style="mask-type:luminance" maskUnits="userSpaceOnUse" x="1" y="1" width="19" height="19">
<path fill-rule="evenodd" clip-rule="evenodd" d="M10.6989 1.37234C5.69731 1.37234 1.67961 5.39004 1.67961 10.3917C1.67961 15.3933 5.69731 19.411 10.6989 19.411C15.7005 19.411 19.7182 15.3933 19.7182 10.3917C19.7182 5.39004 15.7005 1.37234 10.6989 1.37234ZM10.6989 17.7711C6.59924 17.7711 3.31949 14.4913 3.31949 10.3917C3.31949 6.29196 6.59924 3.01221 10.6989 3.01221C14.7986 3.01221 18.0784 6.29196 18.0784 10.3917C18.0784 14.4913 14.7986 17.7711 10.6989 17.7711ZM14.7472 10.1714C14.7307 10.1316 14.7166 10.0976 14.7166 10.0637C14.7166 9.98168 14.6346 9.89969 14.5526 9.8177L11.2729 6.53794C10.9449 6.20997 10.4529 6.20997 10.125 6.53794C9.79699 6.86592 9.79699 7.35788 10.125 7.68586L12.0108 9.57171H7.41917C6.92721 9.57171 6.59924 9.89969 6.59924 10.3917C6.59924 10.8836 6.92721 11.2116 7.41917 11.2116H12.0108L10.125 13.0974C9.79699 13.4254 9.79699 13.9174 10.125 14.2454C10.289 14.4093 10.4529 14.4913 10.6989 14.4913C10.9449 14.4913 11.1089 14.4093 11.2729 14.2454L14.5526 10.9656C14.6346 10.8836 14.7166 10.8016 14.7166 10.7196C14.7986 10.6376 14.7986 10.4736 14.7986 10.3917C14.7986 10.2956 14.7705 10.2277 14.7472 10.1714Z" fill="white"/>
</mask>
<g mask="url(#mask0_1_888)">
<rect x="0.85968" y="0.552399" width="19.6785" height="19.6785" fill="#5096F4"/>
</g>
</svg>
