<svg width="53" height="54" viewBox="0 0 53 54" fill="none" xmlns="http://www.w3.org/2000/svg">
<g clip-path="url(#clip0_1_1036)">
<rect x="0.703491" y="0.707825" width="52.476" height="52.476" rx="26.238" fill="#4FC3F7" fill-opacity="0.2"/>
<path fill-rule="evenodd" clip-rule="evenodd" d="M37.8555 21.1516L27.1462 32.0841C26.932 32.3028 26.7178 32.4121 26.3965 32.4121H22.1127C21.4702 32.4121 21.0418 31.9748 21.0418 31.3188V26.9458C21.0418 26.6179 21.1489 26.3992 21.3631 26.1806L32.0725 15.2481C32.5008 14.8108 33.1434 14.8108 33.5718 15.2481L37.8555 19.6211C38.2839 20.0584 38.2839 20.7143 37.8555 21.1516ZM36.0349 29.8976V35.6918C36.0349 37.5504 34.6427 38.9716 32.8221 38.9716H17.829C16.0084 38.9716 14.6161 37.5504 14.6161 35.6918V20.3863C14.6161 18.5278 16.0084 17.1066 17.829 17.1066H23.5049C24.1475 17.1066 24.5759 17.5439 24.5759 18.1998C24.5759 18.8558 24.1475 19.2931 23.5049 19.2931H17.829C17.1864 19.2931 16.758 19.7304 16.758 20.3863V35.6918C16.758 36.3478 17.1864 36.7851 17.829 36.7851H32.8221C33.4647 36.7851 33.8931 36.3478 33.8931 35.6918V29.8976C33.8931 29.2417 34.3214 28.8044 34.964 28.8044C35.6066 28.8044 36.0349 29.2417 36.0349 29.8976ZM32.8221 17.5439L35.6066 20.3863L25.9681 30.2256H23.1837V27.3831L32.8221 17.5439Z" fill="black"/>
<mask id="mask0_1_1036" style="mask-type:luminance" maskUnits="userSpaceOnUse" x="14" y="14" width="25" height="25">
<path fill-rule="evenodd" clip-rule="evenodd" d="M37.8555 21.1516L27.1462 32.0841C26.932 32.3028 26.7178 32.4121 26.3965 32.4121H22.1127C21.4702 32.4121 21.0418 31.9748 21.0418 31.3188V26.9458C21.0418 26.6179 21.1489 26.3992 21.3631 26.1806L32.0725 15.2481C32.5008 14.8108 33.1434 14.8108 33.5718 15.2481L37.8555 19.6211C38.2839 20.0584 38.2839 20.7143 37.8555 21.1516ZM36.0349 29.8976V35.6918C36.0349 37.5504 34.6427 38.9716 32.8221 38.9716H17.829C16.0084 38.9716 14.6161 37.5504 14.6161 35.6918V20.3863C14.6161 18.5278 16.0084 17.1066 17.829 17.1066H23.5049C24.1475 17.1066 24.5759 17.5439 24.5759 18.1998C24.5759 18.8558 24.1475 19.2931 23.5049 19.2931H17.829C17.1864 19.2931 16.758 19.7304 16.758 20.3863V35.6918C16.758 36.3478 17.1864 36.7851 17.829 36.7851H32.8221C33.4647 36.7851 33.8931 36.3478 33.8931 35.6918V29.8976C33.8931 29.2417 34.3214 28.8044 34.964 28.8044C35.6066 28.8044 36.0349 29.2417 36.0349 29.8976ZM32.8221 17.5439L35.6066 20.3863L25.9681 30.2256H23.1837V27.3831L32.8221 17.5439Z" fill="white"/>
</mask>
<g mask="url(#mask0_1_1036)">
<rect x="13.5452" y="13.8268" width="25.7025" height="26.238" fill="#62A5FF"/>
</g>
</g>
<defs>
<clipPath id="clip0_1_1036">
<rect width="52.476" height="52.476" fill="white" transform="translate(0.237976 0.707825)"/>
</clipPath>
</defs>
</svg>
