<svg width="21" height="21" viewBox="0 0 21 21" fill="none" xmlns="http://www.w3.org/2000/svg">
<path d="M15.9501 8.68433L11.0304 13.604C10.8665 13.7679 10.7025 13.8499 10.4565 13.8499C10.2105 13.8499 10.0465 13.7679 9.88253 13.604L4.9629 8.68433C4.63493 8.35635 4.63493 7.86439 4.9629 7.53642C5.29088 7.20844 5.78284 7.20844 6.11081 7.53642L10.4565 11.8821L14.8022 7.53642C15.1301 7.20844 15.6221 7.20844 15.9501 7.53642C16.278 7.86439 16.278 8.35635 15.9501 8.68433Z" fill="black"/>
<mask id="mask0_1_1077" style="mask-type:luminance" maskUnits="userSpaceOnUse" x="4" y="7" width="13" height="7">
<path d="M15.9501 8.68433L11.0304 13.604C10.8665 13.7679 10.7025 13.8499 10.4565 13.8499C10.2105 13.8499 10.0465 13.7679 9.88253 13.604L4.9629 8.68433C4.63493 8.35635 4.63493 7.86439 4.9629 7.53642C5.29088 7.20844 5.78284 7.20844 6.11081 7.53642L10.4565 11.8821L14.8022 7.53642C15.1301 7.20844 15.6221 7.20844 15.9501 7.53642C16.278 7.86439 16.278 8.35635 15.9501 8.68433Z" fill="white"/>
</mask>
<g mask="url(#mask0_1_1077)">
<rect x="0.617249" y="0.730927" width="19.6785" height="19.6785" fill="#62A5FF"/>
</g>
</svg>
