<svg width="53" height="54" viewBox="0 0 53 54" fill="none" xmlns="http://www.w3.org/2000/svg">
<g clip-path="url(#clip0_1_1044)">
<rect x="0.703491" y="0.60836" width="52.476" height="52.476" rx="26.238" fill="#1E1E1E" fill-opacity="0.12"/>
<path fill-rule="evenodd" clip-rule="evenodd" d="M32.8221 17.0071H28.5384C27.8958 17.0071 27.4674 17.4444 27.4674 18.1004V35.5924C27.4674 36.2483 27.8958 36.6856 28.5384 36.6856H32.8221C33.4647 36.6856 33.8931 36.2483 33.8931 35.5924V18.1004C33.8931 17.4444 33.4647 17.0071 32.8221 17.0071ZM19.9708 17.0071H24.2546C24.8972 17.0071 25.3255 17.4444 25.3255 18.1004V35.5924C25.3255 36.2483 24.8972 36.6856 24.2546 36.6856H19.9708C19.3283 36.6856 18.8999 36.2483 18.8999 35.5924V18.1004C18.8999 17.4444 19.3283 17.0071 19.9708 17.0071ZM21.0418 34.4991H23.1837V19.1936H21.0418V34.4991ZM29.6093 34.4991H31.7512V19.1936H29.6093V34.4991Z" fill="black"/>
<mask id="mask0_1_1044" style="mask-type:luminance" maskUnits="userSpaceOnUse" x="18" y="17" width="16" height="20">
<path fill-rule="evenodd" clip-rule="evenodd" d="M32.8221 17.0071H28.5384C27.8958 17.0071 27.4674 17.4444 27.4674 18.1004V35.5924C27.4674 36.2483 27.8958 36.6856 28.5384 36.6856H32.8221C33.4647 36.6856 33.8931 36.2483 33.8931 35.5924V18.1004C33.8931 17.4444 33.4647 17.0071 32.8221 17.0071ZM19.9708 17.0071H24.2546C24.8972 17.0071 25.3255 17.4444 25.3255 18.1004V35.5924C25.3255 36.2483 24.8972 36.6856 24.2546 36.6856H19.9708C19.3283 36.6856 18.8999 36.2483 18.8999 35.5924V18.1004C18.8999 17.4444 19.3283 17.0071 19.9708 17.0071ZM21.0418 34.4991H23.1837V19.1936H21.0418V34.4991ZM29.6093 34.4991H31.7512V19.1936H29.6093V34.4991Z" fill="white"/>
</mask>
<g mask="url(#mask0_1_1044)">
<rect x="13.5452" y="13.7274" width="25.7025" height="26.238" fill="#6E6B7B"/>
</g>
</g>
<defs>
<clipPath id="clip0_1_1044">
<rect width="52.476" height="52.476" fill="white" transform="translate(0.237976 0.608368)"/>
</clipPath>
</defs>
</svg>
