<svg width="53" height="53" viewBox="0 0 53 53" fill="none" xmlns="http://www.w3.org/2000/svg">
<g clip-path="url(#clip0_1_1052)">
<rect x="0.703491" y="0.508895" width="52.476" height="52.476" rx="26.238" fill="#FF0A00" fill-opacity="0.12"/>
<path d="M26.3233 38.7727C24.7038 38.7727 23.1819 38.457 21.7575 37.8256C20.3331 37.1943 19.0941 36.3374 18.0405 35.2551C16.9869 34.1728 16.1527 32.9001 15.5381 31.4369C14.9235 29.9738 14.6161 28.4105 14.6161 26.7469C14.6161 25.0833 14.9235 23.52 15.5381 22.0569C16.1527 20.5937 16.9869 19.321 18.0405 18.2387C19.0941 17.1564 20.3331 16.2995 21.7575 15.6682C23.1819 15.0368 24.7038 14.7212 26.3233 14.7212C28.0794 14.7212 29.7135 15.0869 31.2257 15.8185C32.7379 16.5501 34.05 17.5672 35.1622 18.87L26.3233 27.9495V16.525C23.5916 16.525 21.2502 17.5272 19.299 19.5315C17.3478 21.5357 16.3722 23.9409 16.3722 26.7469C16.3722 29.5529 17.3478 31.9581 19.299 33.9624C21.2502 35.9667 23.5916 36.9688 26.3233 36.9688C27.8452 36.9688 29.3721 36.5479 30.9037 35.7061C32.4354 34.8643 33.6305 33.9223 34.4891 32.88V35.3754C33.3574 36.4978 32.094 37.3446 30.6989 37.9158C29.3038 38.487 27.8452 38.7727 26.3233 38.7727ZM37.1232 34.3532C36.8695 34.3532 36.6598 34.268 36.4939 34.0976C36.3281 33.9273 36.2451 33.7118 36.2451 33.4513V25.4241C36.2451 25.1635 36.3281 24.9481 36.4939 24.7777C36.6598 24.6073 36.8695 24.5221 37.1232 24.5221C37.3768 24.5221 37.5866 24.6073 37.7524 24.7777C37.9183 24.9481 38.0012 25.1635 38.0012 25.4241V33.4513C38.0012 33.7118 37.9183 33.9273 37.7524 34.0976C37.5866 34.268 37.3768 34.3532 37.1232 34.3532ZM37.211 38.5622C36.9378 38.5622 36.7085 38.467 36.5232 38.2766C36.3378 38.0862 36.2451 37.8507 36.2451 37.5701C36.2451 37.2895 36.3378 37.054 36.5232 36.8636C36.7085 36.6732 36.9378 36.578 37.211 36.578C37.4841 36.578 37.7134 36.6732 37.8988 36.8636C38.0841 37.054 38.1768 37.2895 38.1768 37.5701C38.1768 37.8507 38.0841 38.0862 37.8988 38.2766C37.7134 38.467 37.4841 38.5622 37.211 38.5622Z" fill="#EA5455"/>
</g>
<defs>
<clipPath id="clip0_1_1052">
<rect width="52.476" height="52.476" fill="white" transform="translate(0.237976 0.508881)"/>
</clipPath>
</defs>
</svg>
