<svg width="53" height="54" viewBox="0 0 53 54" fill="none" xmlns="http://www.w3.org/2000/svg">
<g clip-path="url(#clip0_1_1028)">
<rect x="0.703491" y="0.807281" width="52.476" height="52.476" rx="26.238" fill="#00BA62" fill-opacity="0.17"/>
<path fill-rule="evenodd" clip-rule="evenodd" d="M21.5773 16.2772L36.5704 26.1411C36.8917 26.2507 37.1059 26.6891 37.1059 27.0179C37.1059 27.3467 36.8917 27.6755 36.5704 27.8947L21.5773 37.7586C21.4702 37.8682 21.256 37.9778 21.0418 37.9778C20.8276 37.9778 20.7205 37.9778 20.5064 37.8682C20.1851 37.649 19.9709 37.3202 19.9709 36.8818V17.154C19.9709 16.7156 20.1851 16.3868 20.5064 16.2772C20.8276 16.058 21.256 16.058 21.5773 16.2772ZM34.1073 27.0179L22.1128 19.1268V34.909L34.1073 27.0179Z" fill="black"/>
<mask id="mask0_1_1028" style="mask-type:luminance" maskUnits="userSpaceOnUse" x="19" y="16" width="19" height="22">
<path fill-rule="evenodd" clip-rule="evenodd" d="M21.5773 16.2772L36.5704 26.1411C36.8917 26.2507 37.1059 26.6891 37.1059 27.0179C37.1059 27.3467 36.8917 27.6755 36.5704 27.8947L21.5773 37.7586C21.4702 37.8682 21.256 37.9778 21.0418 37.9778C20.8276 37.9778 20.7205 37.9778 20.5064 37.8682C20.1851 37.649 19.9709 37.3202 19.9709 36.8818V17.154C19.9709 16.7156 20.1851 16.3868 20.5064 16.2772C20.8276 16.058 21.256 16.058 21.5773 16.2772ZM34.1073 27.0179L22.1128 19.1268V34.909L34.1073 27.0179Z" fill="white"/>
</mask>
<g mask="url(#mask0_1_1028)">
<rect x="15.6871" y="13.9263" width="25.7025" height="26.238" fill="#28C76F"/>
</g>
</g>
<defs>
<clipPath id="clip0_1_1028">
<rect width="52.476" height="52.476" fill="white" transform="translate(0.237976 0.807297)"/>
</clipPath>
</defs>
</svg>
